<svg width="78" height="20" viewBox="0 0 78 20" fill="none" xmlns="http://www.w3.org/2000/svg">
<rect width="78" height="20" rx="10" fill="black"/>
<path d="M29.7617 12.707C29.2441 12.9805 28.5996 13.1172 27.8281 13.1172C26.832 13.1172 26.0345 12.7965 25.4355 12.1553C24.8366 11.514 24.5371 10.6725 24.5371 9.63086C24.5371 8.51107 24.874 7.60612 25.5479 6.91602C26.2217 6.22591 27.0762 5.88086 28.1113 5.88086C28.7754 5.88086 29.3255 5.97689 29.7617 6.16895V7.04297C29.2604 6.76302 28.707 6.62305 28.1016 6.62305C27.2975 6.62305 26.6449 6.8916 26.1436 7.42871C25.6455 7.96582 25.3965 8.68359 25.3965 9.58203C25.3965 10.4349 25.6292 11.1152 26.0947 11.623C26.5635 12.1276 27.1771 12.3799 27.9355 12.3799C28.6387 12.3799 29.2474 12.2236 29.7617 11.9111V12.707ZM31.8809 13H31.0801V5.59766H31.8809V13ZM35.5918 13.1172C34.8529 13.1172 34.262 12.8844 33.8193 12.4189C33.3799 11.9502 33.1602 11.3301 33.1602 10.5586C33.1602 9.71875 33.3896 9.06283 33.8486 8.59082C34.3076 8.11882 34.9277 7.88281 35.709 7.88281C36.4544 7.88281 37.0355 8.1123 37.4521 8.57129C37.8721 9.03027 38.082 9.66667 38.082 10.4805C38.082 11.278 37.8558 11.9176 37.4033 12.3994C36.9541 12.8779 36.3503 13.1172 35.5918 13.1172ZM35.6504 8.55664C35.1361 8.55664 34.7292 8.73242 34.4297 9.08398C34.1302 9.43229 33.9805 9.91406 33.9805 10.5293C33.9805 11.1217 34.1318 11.5889 34.4346 11.9307C34.7373 12.2725 35.1426 12.4434 35.6504 12.4434C36.168 12.4434 36.5651 12.2757 36.8418 11.9404C37.1217 11.6051 37.2617 11.1283 37.2617 10.5098C37.2617 9.88477 37.1217 9.40299 36.8418 9.06445C36.5651 8.72591 36.168 8.55664 35.6504 8.55664ZM39.0586 12.8193V11.96C39.4948 12.2822 39.9749 12.4434 40.499 12.4434C41.2021 12.4434 41.5537 12.209 41.5537 11.7402C41.5537 11.6068 41.5228 11.4945 41.4609 11.4033C41.4023 11.3089 41.321 11.2259 41.2168 11.1543C41.1159 11.0827 40.9954 11.0192 40.8555 10.9639C40.7188 10.9053 40.5706 10.8451 40.4111 10.7832C40.1898 10.6953 39.9945 10.6074 39.8252 10.5195C39.6592 10.4284 39.5192 10.3275 39.4053 10.2168C39.2946 10.1029 39.21 9.97428 39.1514 9.83105C39.096 9.68783 39.0684 9.52018 39.0684 9.32812C39.0684 9.09375 39.1221 8.88704 39.2295 8.70801C39.3369 8.52572 39.4801 8.37435 39.6592 8.25391C39.8382 8.13021 40.0417 8.03743 40.2695 7.97559C40.5007 7.91374 40.7383 7.88281 40.9824 7.88281C41.4154 7.88281 41.8027 7.95768 42.1445 8.10742V8.91797C41.7767 8.67708 41.3535 8.55664 40.875 8.55664C40.7253 8.55664 40.5902 8.57454 40.4697 8.61035C40.3493 8.6429 40.2451 8.6901 40.1572 8.75195C40.0726 8.8138 40.0059 8.88867 39.957 8.97656C39.9115 9.0612 39.8887 9.1556 39.8887 9.25977C39.8887 9.38997 39.9115 9.49902 39.957 9.58691C40.0059 9.6748 40.0758 9.75293 40.167 9.82129C40.2581 9.88965 40.3688 9.9515 40.499 10.0068C40.6292 10.0622 40.7773 10.1224 40.9434 10.1875C41.1647 10.2721 41.3633 10.36 41.5391 10.4512C41.7148 10.5391 41.8646 10.64 41.9883 10.7539C42.112 10.8646 42.2064 10.9932 42.2715 11.1396C42.3398 11.2861 42.374 11.4603 42.374 11.6621C42.374 11.9095 42.3187 12.1243 42.208 12.3066C42.1006 12.4889 41.9557 12.6403 41.7734 12.7607C41.5911 12.8812 41.3812 12.9707 41.1436 13.0293C40.9059 13.0879 40.6569 13.1172 40.3965 13.1172C39.8822 13.1172 39.4362 13.0179 39.0586 12.8193ZM47.6279 10.7002H44.0977C44.1107 11.2568 44.2604 11.6865 44.5469 11.9893C44.8333 12.292 45.2272 12.4434 45.7285 12.4434C46.2917 12.4434 46.8092 12.2578 47.2812 11.8867V12.6387C46.8418 12.9577 46.2607 13.1172 45.5381 13.1172C44.8317 13.1172 44.2767 12.891 43.873 12.4385C43.4694 11.9827 43.2676 11.3431 43.2676 10.5195C43.2676 9.74154 43.4873 9.1084 43.9268 8.62012C44.3695 8.12858 44.918 7.88281 45.5723 7.88281C46.2266 7.88281 46.7327 8.0944 47.0908 8.51758C47.4489 8.94076 47.6279 9.52832 47.6279 10.2803V10.7002ZM46.8076 10.0215C46.8044 9.55924 46.6921 9.19954 46.4707 8.94238C46.2526 8.68522 45.9482 8.55664 45.5576 8.55664C45.18 8.55664 44.8594 8.69173 44.5957 8.96191C44.332 9.2321 44.1693 9.58529 44.1074 10.0215H46.8076ZM53.1113 13H52.3105V12.1504H52.291C51.9199 12.7949 51.347 13.1172 50.5723 13.1172C49.944 13.1172 49.4411 12.8942 49.0635 12.4482C48.6891 11.999 48.502 11.3887 48.502 10.6172C48.502 9.79036 48.7103 9.12793 49.127 8.62988C49.5436 8.13184 50.0986 7.88281 50.792 7.88281C51.4788 7.88281 51.9785 8.15299 52.291 8.69336H52.3105V5.59766H53.1113V13ZM52.3105 10.7393V10.002C52.3105 9.59831 52.1771 9.25651 51.9102 8.97656C51.6432 8.69661 51.3047 8.55664 50.8945 8.55664C50.4062 8.55664 50.0221 8.73568 49.7422 9.09375C49.4622 9.45182 49.3223 9.94661 49.3223 10.5781C49.3223 11.1543 49.4557 11.61 49.7227 11.9453C49.9928 12.2773 50.3542 12.4434 50.8066 12.4434C51.2526 12.4434 51.6139 12.2822 51.8906 11.96C52.1706 11.6377 52.3105 11.2308 52.3105 10.7393Z" fill="white"/>
</svg>
