<svg width="78" height="20" viewBox="0 0 78 20" fill="none" xmlns="http://www.w3.org/2000/svg">
<rect width="78" height="20" rx="2" fill="#FFAA44" fill-opacity="0.85"/>
<path d="M16.1826 13H15.3623V5.99805H16.1826V13ZM22.0713 13H21.2705V10.1484C21.2705 9.08724 20.8831 8.55664 20.1084 8.55664C19.708 8.55664 19.376 8.70801 19.1123 9.01074C18.8519 9.31022 18.7217 9.68945 18.7217 10.1484V13H17.9209V8H18.7217V8.83008H18.7412C19.1188 8.19857 19.6657 7.88281 20.3818 7.88281C20.9287 7.88281 21.347 8.06022 21.6367 8.41504C21.9264 8.7666 22.0713 9.27604 22.0713 9.94336V13ZM27.2568 10.3535V13H26.4365V5.99805H28.3604C29.109 5.99805 29.6885 6.18034 30.0986 6.54492C30.512 6.90951 30.7188 7.42383 30.7188 8.08789C30.7188 8.75195 30.4893 9.29557 30.0303 9.71875C29.5745 10.1419 28.9577 10.3535 28.1797 10.3535H27.2568ZM27.2568 6.74023V9.61133H28.1162C28.6826 9.61133 29.1139 9.48275 29.4102 9.22559C29.7096 8.96517 29.8594 8.59896 29.8594 8.12695C29.8594 7.20247 29.3125 6.74023 28.2188 6.74023H27.2568ZM34.542 8.81055C34.402 8.70312 34.2002 8.64941 33.9365 8.64941C33.5947 8.64941 33.3083 8.81055 33.0771 9.13281C32.8493 9.45508 32.7354 9.89453 32.7354 10.4512V13H31.9346V8H32.7354V9.03027H32.7549C32.8688 8.67871 33.043 8.40527 33.2773 8.20996C33.5117 8.01139 33.7738 7.91211 34.0635 7.91211C34.2718 7.91211 34.4313 7.9349 34.542 7.98047V8.81055ZM37.501 13.1172C36.762 13.1172 36.1712 12.8844 35.7285 12.4189C35.2891 11.9502 35.0693 11.3301 35.0693 10.5586C35.0693 9.71875 35.2988 9.06283 35.7578 8.59082C36.2168 8.11882 36.8369 7.88281 37.6182 7.88281C38.3636 7.88281 38.9447 8.1123 39.3613 8.57129C39.7812 9.03027 39.9912 9.66667 39.9912 10.4805C39.9912 11.278 39.765 11.9176 39.3125 12.3994C38.8633 12.8779 38.2594 13.1172 37.501 13.1172ZM37.5596 8.55664C37.0452 8.55664 36.6383 8.73242 36.3389 9.08398C36.0394 9.43229 35.8896 9.91406 35.8896 10.5293C35.8896 11.1217 36.041 11.5889 36.3438 11.9307C36.6465 12.2725 37.0518 12.4434 37.5596 12.4434C38.0771 12.4434 38.4743 12.2757 38.751 11.9404C39.0309 11.6051 39.1709 11.1283 39.1709 10.5098C39.1709 9.88477 39.0309 9.40299 38.751 9.06445C38.4743 8.72591 38.0771 8.55664 37.5596 8.55664ZM45.5381 12.5996C45.5381 14.4355 44.6592 15.3535 42.9014 15.3535C42.2829 15.3535 41.7425 15.2363 41.2803 15.002V14.2012C41.8434 14.5137 42.3805 14.6699 42.8916 14.6699C44.1221 14.6699 44.7373 14.0156 44.7373 12.707V12.1602H44.7178C44.3369 12.7982 43.764 13.1172 42.999 13.1172C42.3773 13.1172 41.876 12.8958 41.4951 12.4531C41.1175 12.0072 40.9287 11.4098 40.9287 10.6611C40.9287 9.81152 41.1322 9.13607 41.5391 8.63477C41.9492 8.13346 42.5091 7.88281 43.2188 7.88281C43.8926 7.88281 44.3923 8.15299 44.7178 8.69336H44.7373V8H45.5381V12.5996ZM44.7373 10.7393V10.002C44.7373 9.60482 44.6022 9.26465 44.332 8.98145C44.0651 8.69824 43.7314 8.55664 43.3311 8.55664C42.8363 8.55664 42.4489 8.7373 42.1689 9.09863C41.889 9.45671 41.749 9.95964 41.749 10.6074C41.749 11.1641 41.8825 11.61 42.1494 11.9453C42.4196 12.2773 42.776 12.4434 43.2188 12.4434C43.668 12.4434 44.0326 12.2839 44.3125 11.9648C44.5957 11.6458 44.7373 11.2373 44.7373 10.7393ZM49.7666 8.81055C49.6266 8.70312 49.4248 8.64941 49.1611 8.64941C48.8193 8.64941 48.5329 8.81055 48.3018 9.13281C48.0739 9.45508 47.96 9.89453 47.96 10.4512V13H47.1592V8H47.96V9.03027H47.9795C48.0934 8.67871 48.2676 8.40527 48.502 8.20996C48.7363 8.01139 48.9984 7.91211 49.2881 7.91211C49.4964 7.91211 49.6559 7.9349 49.7666 7.98047V8.81055ZM54.6543 10.7002H51.124C51.137 11.2568 51.2868 11.6865 51.5732 11.9893C51.8597 12.292 52.2536 12.4434 52.7549 12.4434C53.318 12.4434 53.8356 12.2578 54.3076 11.8867V12.6387C53.8682 12.9577 53.2871 13.1172 52.5645 13.1172C51.8581 13.1172 51.3031 12.891 50.8994 12.4385C50.4958 11.9827 50.2939 11.3431 50.2939 10.5195C50.2939 9.74154 50.5137 9.1084 50.9531 8.62012C51.3958 8.12858 51.9443 7.88281 52.5986 7.88281C53.2529 7.88281 53.7591 8.0944 54.1172 8.51758C54.4753 8.94076 54.6543 9.52832 54.6543 10.2803V10.7002ZM53.834 10.0215C53.8307 9.55924 53.7184 9.19954 53.4971 8.94238C53.279 8.68522 52.9746 8.55664 52.584 8.55664C52.2064 8.55664 51.8857 8.69173 51.6221 8.96191C51.3584 9.2321 51.1956 9.58529 51.1338 10.0215H53.834ZM55.5674 12.8193V11.96C56.0036 12.2822 56.4837 12.4434 57.0078 12.4434C57.7109 12.4434 58.0625 12.209 58.0625 11.7402C58.0625 11.6068 58.0316 11.4945 57.9697 11.4033C57.9111 11.3089 57.8298 11.2259 57.7256 11.1543C57.6247 11.0827 57.5042 11.0192 57.3643 10.9639C57.2275 10.9053 57.0794 10.8451 56.9199 10.7832C56.6986 10.6953 56.5033 10.6074 56.334 10.5195C56.168 10.4284 56.028 10.3275 55.9141 10.2168C55.8034 10.1029 55.7188 9.97428 55.6602 9.83105C55.6048 9.68783 55.5771 9.52018 55.5771 9.32812C55.5771 9.09375 55.6309 8.88704 55.7383 8.70801C55.8457 8.52572 55.9889 8.37435 56.168 8.25391C56.347 8.13021 56.5505 8.03743 56.7783 7.97559C57.0094 7.91374 57.2471 7.88281 57.4912 7.88281C57.9242 7.88281 58.3115 7.95768 58.6533 8.10742V8.91797C58.2855 8.67708 57.8623 8.55664 57.3838 8.55664C57.234 8.55664 57.099 8.57454 56.9785 8.61035C56.8581 8.6429 56.7539 8.6901 56.666 8.75195C56.5814 8.8138 56.5146 8.88867 56.4658 8.97656C56.4202 9.0612 56.3975 9.1556 56.3975 9.25977C56.3975 9.38997 56.4202 9.49902 56.4658 9.58691C56.5146 9.6748 56.5846 9.75293 56.6758 9.82129C56.7669 9.88965 56.8776 9.9515 57.0078 10.0068C57.138 10.0622 57.2861 10.1224 57.4521 10.1875C57.6735 10.2721 57.8721 10.36 58.0479 10.4512C58.2236 10.5391 58.3734 10.64 58.4971 10.7539C58.6208 10.8646 58.7152 10.9932 58.7803 11.1396C58.8486 11.2861 58.8828 11.4603 58.8828 11.6621C58.8828 11.9095 58.8275 12.1243 58.7168 12.3066C58.6094 12.4889 58.4645 12.6403 58.2822 12.7607C58.0999 12.8812 57.89 12.9707 57.6523 13.0293C57.4147 13.0879 57.1657 13.1172 56.9053 13.1172C56.391 13.1172 55.945 13.0179 55.5674 12.8193ZM59.8154 12.8193V11.96C60.2516 12.2822 60.7318 12.4434 61.2559 12.4434C61.959 12.4434 62.3105 12.209 62.3105 11.7402C62.3105 11.6068 62.2796 11.4945 62.2178 11.4033C62.1592 11.3089 62.0778 11.2259 61.9736 11.1543C61.8727 11.0827 61.7523 11.0192 61.6123 10.9639C61.4756 10.9053 61.3275 10.8451 61.168 10.7832C60.9466 10.6953 60.7513 10.6074 60.582 10.5195C60.416 10.4284 60.276 10.3275 60.1621 10.2168C60.0514 10.1029 59.9668 9.97428 59.9082 9.83105C59.8529 9.68783 59.8252 9.52018 59.8252 9.32812C59.8252 9.09375 59.8789 8.88704 59.9863 8.70801C60.0938 8.52572 60.237 8.37435 60.416 8.25391C60.5951 8.13021 60.7985 8.03743 61.0264 7.97559C61.2575 7.91374 61.4951 7.88281 61.7393 7.88281C62.1722 7.88281 62.5596 7.95768 62.9014 8.10742V8.91797C62.5335 8.67708 62.1104 8.55664 61.6318 8.55664C61.4821 8.55664 61.347 8.57454 61.2266 8.61035C61.1061 8.6429 61.002 8.6901 60.9141 8.75195C60.8294 8.8138 60.7627 8.88867 60.7139 8.97656C60.6683 9.0612 60.6455 9.1556 60.6455 9.25977C60.6455 9.38997 60.6683 9.49902 60.7139 9.58691C60.7627 9.6748 60.8327 9.75293 60.9238 9.82129C61.015 9.88965 61.1257 9.9515 61.2559 10.0068C61.3861 10.0622 61.5342 10.1224 61.7002 10.1875C61.9215 10.2721 62.1201 10.36 62.2959 10.4512C62.4717 10.5391 62.6214 10.64 62.7451 10.7539C62.8688 10.8646 62.9632 10.9932 63.0283 11.1396C63.0967 11.2861 63.1309 11.4603 63.1309 11.6621C63.1309 11.9095 63.0755 12.1243 62.9648 12.3066C62.8574 12.4889 62.7126 12.6403 62.5303 12.7607C62.348 12.8812 62.138 12.9707 61.9004 13.0293C61.6628 13.0879 61.4137 13.1172 61.1533 13.1172C60.639 13.1172 60.193 13.0179 59.8154 12.8193Z" fill="#AB6006" fill-opacity="0.85"/>
</svg>
