<svg width="110" height="30" viewBox="0 0 78 20" fill="none" xmlns="http://www.w3.org/2000/svg">
<rect width="78" height="20" rx="2" fill="#6BB700" fill-opacity="0.61"/>
<path d="M30.582 13.1172C29.5892 13.1172 28.7933 12.79 28.1943 12.1357C27.5986 11.4814 27.3008 10.6302 27.3008 9.58203C27.3008 8.45573 27.6051 7.55729 28.2139 6.88672C28.8226 6.21615 29.651 5.88086 30.6992 5.88086C31.666 5.88086 32.444 6.20638 33.0332 6.85742C33.6257 7.50846 33.9219 8.3597 33.9219 9.41113C33.9219 10.5537 33.6191 11.457 33.0137 12.1211C32.4082 12.7852 31.5977 13.1172 30.582 13.1172ZM30.6406 6.62305C29.9049 6.62305 29.3076 6.88835 28.8486 7.41895C28.3896 7.94954 28.1602 8.64616 28.1602 9.50879C28.1602 10.3714 28.3831 11.0664 28.8291 11.5938C29.2783 12.1178 29.8626 12.3799 30.582 12.3799C31.3503 12.3799 31.9557 12.1292 32.3984 11.6279C32.8411 11.1266 33.0625 10.4251 33.0625 9.52344C33.0625 8.59896 32.8477 7.88444 32.418 7.37988C31.9883 6.87533 31.3958 6.62305 30.6406 6.62305ZM36.0117 12.2773H35.9922V15.2998H35.1914V8H35.9922V8.87891H36.0117C36.4056 8.21484 36.9818 7.88281 37.7402 7.88281C38.3848 7.88281 38.8877 8.10742 39.249 8.55664C39.6104 9.0026 39.791 9.60156 39.791 10.3535C39.791 11.1901 39.5876 11.8607 39.1807 12.3652C38.7738 12.8665 38.2171 13.1172 37.5107 13.1172C36.863 13.1172 36.3633 12.8372 36.0117 12.2773ZM35.9922 10.2607V10.959C35.9922 11.3724 36.1257 11.724 36.3926 12.0137C36.6628 12.3001 37.0046 12.4434 37.418 12.4434C37.903 12.4434 38.2822 12.2578 38.5557 11.8867C38.8324 11.5156 38.9707 10.9997 38.9707 10.3389C38.9707 9.78223 38.8421 9.34603 38.585 9.03027C38.3278 8.71452 37.9795 8.55664 37.54 8.55664C37.0745 8.55664 36.7002 8.7194 36.417 9.04492C36.1338 9.36719 35.9922 9.77246 35.9922 10.2607ZM45.0889 10.7002H41.5586C41.5716 11.2568 41.7214 11.6865 42.0078 11.9893C42.2943 12.292 42.6882 12.4434 43.1895 12.4434C43.7526 12.4434 44.2702 12.2578 44.7422 11.8867V12.6387C44.3027 12.9577 43.7217 13.1172 42.999 13.1172C42.2926 13.1172 41.7376 12.891 41.334 12.4385C40.9303 11.9827 40.7285 11.3431 40.7285 10.5195C40.7285 9.74154 40.9482 9.1084 41.3877 8.62012C41.8304 8.12858 42.3789 7.88281 43.0332 7.88281C43.6875 7.88281 44.1937 8.0944 44.5518 8.51758C44.9098 8.94076 45.0889 9.52832 45.0889 10.2803V10.7002ZM44.2686 10.0215C44.2653 9.55924 44.153 9.19954 43.9316 8.94238C43.7135 8.68522 43.4092 8.55664 43.0186 8.55664C42.641 8.55664 42.3203 8.69173 42.0566 8.96191C41.793 9.2321 41.6302 9.58529 41.5684 10.0215H44.2686ZM50.4551 13H49.6543V10.1484C49.6543 9.08724 49.2669 8.55664 48.4922 8.55664C48.0918 8.55664 47.7598 8.70801 47.4961 9.01074C47.2357 9.31022 47.1055 9.68945 47.1055 10.1484V13H46.3047V8H47.1055V8.83008H47.125C47.5026 8.19857 48.0495 7.88281 48.7656 7.88281C49.3125 7.88281 49.7308 8.06022 50.0205 8.41504C50.3102 8.7666 50.4551 9.27604 50.4551 9.94336V13Z" fill="#2E4B04" fill-opacity="0.61"/>
</svg>
